<?xml version="1.0" encoding="utf-8"?>
<!-- Generator: Adobe Illustrator 25.4.1, SVG Export Plug-In . SVG Version: 6.00 Build 0)  -->
<svg version="1.1" id="Capa_1" xmlns="http://www.w3.org/2000/svg" xmlns:xlink="http://www.w3.org/1999/xlink" x="0px" y="0px"
	 viewBox="0 0 357.407 357.407" style="enable-background:new 0 0 357.407 357.407;" xml:space="preserve">
<style type="text/css">
	.st0{fill:#F9C852;}
	.st1{fill:#FFFFFF;}
	.st2{enable-background:new    ;}
	.st3{fill:#00BFA5;}
</style>
<rect class="st0" width="357.407" height="357.407"/>
<g id="Grupo_183" transform="translate(-7.344 -10.608)">
	<g transform="matrix(1, 0, 0, 1, 7.34, 10.61)">
		<circle id="Elipse_7-2" class="st1" cx="178.708" cy="178.702" r="153"/>
	</g>
	<g id="Grupo_182" transform="translate(33.521 42.415)">
		<path id="Trazado_236" class="st0" d="M209.976,185.663c-1.322-1.158-3.224-1.374-4.772-0.542
			c-7.349,3.574-15.717,5.619-23.89,4.362c-6.193-0.869-11.763-4.259-16.164-8.66c-5.376-5.376-8.587-14.142-8.587-14.142
			s16-9.245,18.8-17.407c0.753-2.191,1.215-4.18,0.341-6.165c-0.969-2.016-2.668-3.589-4.753-4.4
			c-11.747-5.135-25.105-5.135-36.852,0c-2.085,0.811-3.784,2.384-4.754,4.4c-0.874,1.985-0.411,3.974,0.342,6.165
			c2.806,8.161,18.8,17.407,18.8,17.407s-3.211,8.766-8.587,14.142c-4.4,4.4-9.972,7.791-16.164,8.66
			c-8.173,1.257-16.542-0.788-23.89-4.362c-1.548-0.832-3.45-0.616-4.772,0.542c-1.688,1.535-1.812,4.147-0.277,5.834
			c0.311,0.342,0.677,0.629,1.083,0.85c7.589,3.969,16.062,5.943,24.623,5.737c7.599-0.257,14.924-2.901,20.935-7.558
			c4.458-3.638,8.214-8.06,11.082-13.049c2.868,4.989,6.623,9.411,11.081,13.049c6.011,4.657,13.336,7.301,20.935,7.558
			c8.561,0.206,17.034-1.768,24.623-5.737c2.006-1.086,2.752-3.592,1.667-5.598C210.605,186.342,210.318,185.975,209.976,185.663z"
			/>
		<path id="Trazado_237" class="st0" d="M152.53,103.37c72.908,0,135.236,88.625,135.236,88.625s0.586-10.6,0.586-14.875
			c0-75.013-60.81-157.418-135.822-157.418S16.708,102.107,16.708,177.12c0,5.027,0.809,14.875,0.809,14.875
			S79.622,103.37,152.53,103.37z"/>
		<ellipse id="Elipse_8" class="st0" cx="93.734" cy="128.548" rx="8.267" ry="10.12"/>
		<ellipse id="Elipse_9" class="st0" cx="211.327" cy="128.548" rx="8.267" ry="10.12"/>
	</g>
	<g class="st2">
		<path class="st3" d="M131.002,279.961c9.349,0,14.078,4.234,14.078,11.328c0,7.81-5.665,11.769-14.793,11.769h-1.65v14.243h-9.074
			v-37.23C120.663,280.071,128.142,279.961,131.002,279.961z M130.947,297.064c2.475,0,4.62-1.705,4.62-5.334
			c0-3.08-1.43-5.72-4.895-5.774c-0.935,0-1.595,0.055-2.035,0.109v10.999H130.947z"/>
		<path class="st3" d="M171.15,297.448c0,5.335-5.444,9.514-14.188,10.229c0.495,2.2,1.76,3.685,4.509,3.685
			c3.189,0,7.809-1.76,7.809-1.76l1.65,5.72c0,0-5.004,2.475-10.834,2.475c-8.964,0-12.538-5.444-12.538-13.528
			c0-9.844,6.104-15.123,13.968-15.123C168.4,289.145,171.15,292.719,171.15,297.448z M162.516,297.668c0-1.374-0.88-2.31-2.09-2.31
			c-2.805,0-3.794,3.63-3.904,6.765C160.866,302.013,162.516,299.428,162.516,297.668z"/>
		<path class="st3" d="M176.927,289.914l0.935-5.664l7.534-1.649v7.313h6.489l-1.045,6.38h-5.444v12.263
			c0,1.595,0.88,2.42,2.53,2.42c1.76,0,3.959-0.604,3.959-0.604l1.484,5.829c-1.484,0.495-4.069,1.319-7.808,1.319
			c-5.5,0-8.799-2.034-8.799-7.479v-13.748h-4.345v-6.38H176.927z"/>
		<path class="st3" d="M225.709,300.143c0-2.584-0.275-4.289-1.815-4.289c-1.76,0-3.629,2.75-3.629,6.93v14.518h-8.744v-17.158
			c0-2.584-0.22-4.289-1.814-4.289c-1.815,0-3.63,2.805-3.63,7.204v14.243h-8.688v-14.298c0-8.689-3.024-11.494-3.024-11.494
			l6.983-2.199c0,0,1.705,1.76,2.53,5.004c1.76-3.409,5.059-5.004,8.854-5.004c3.189,0,5.169,1.319,6.379,3.739
			c1.925-2.64,4.619-3.739,7.81-3.739c5.664,0,7.479,3.794,7.479,9.568v18.423h-8.688V300.143z"/>
		<path class="st3" d="M244.412,286.285c-3.08,0-4.785-2.145-4.785-4.729c0-2.915,1.705-5.114,5.005-5.114
			c3.024,0,4.729,2.09,4.729,4.839C249.361,284.141,247.656,286.285,244.412,286.285z M240.177,289.695h8.688v19.138
			c0,1.649,0.495,2.145,1.54,2.145c0.55,0,1.265-0.165,1.43-0.22l0.77,5.444c-0.109,0.109-2.475,1.319-5.444,1.319
			c-4.124,0-6.983-2.31-6.983-6.214V289.695z"/>
	</g>
</g>
</svg>
